<svg width="64" height="64" viewBox="0 0 64 64" fill="none" xmlns="http://www.w3.org/2000/svg">
<path d="M61.5944 17.0153C59.8191 19.0024 57.2786 20.1354 54.6138 20.1282C53.0984 20.144 51.6041 19.7702 50.2749 19.0431L45.1813 24.7033H45.1807C46.7612 26.8504 47.5534 29.4765 47.4244 32.1395C47.2954 34.8025 46.2532 37.3396 44.4732 39.3241C43.6434 40.2624 42.6531 41.0448 41.5491 41.6357L43.86 48.5217C45.2603 48.5842 46.6078 49.0744 47.7212 49.9259C48.8339 50.778 49.6597 51.9507 50.0861 53.2856C50.3104 53.9706 50.4223 54.6871 50.4164 55.4077C50.4137 56.8507 49.9564 58.2562 49.1102 59.4249C48.2634 60.5935 47.0698 61.4653 45.6998 61.9167C45.0149 62.1411 44.2976 62.2523 43.577 62.2464C42.4782 62.2549 41.3938 61.9957 40.4173 61.4923C38.8052 60.6501 37.5865 59.211 37.0214 57.4831C36.5871 56.1394 36.5759 54.6958 36.9891 53.3461C37.4024 51.9965 38.2203 50.8063 39.3323 49.9364L37.0681 43.0971C36.6608 43.1366 36.2516 43.1524 35.8423 43.1445C32.9701 43.1471 30.1993 42.089 28.0595 40.1729C25.5939 37.9665 24.201 34.8029 24.2391 31.4944L15.7963 29.6546L15.7969 29.6553C15.1271 30.8989 14.1533 31.9538 12.9668 32.7209C11.6239 33.6098 10.0493 34.0856 8.43912 34.0882C7.83574 34.0954 7.23433 34.0323 6.64666 33.9C4.60288 33.4624 2.79543 32.2793 1.57671 30.5817C0.358087 28.8834 -0.184079 26.7923 0.0554207 24.7164C0.294937 22.6404 1.29904 20.7275 2.87238 19.3523C4.44565 17.9764 6.47565 17.2363 8.56475 17.2757C10.6545 17.3152 12.6542 18.1317 14.1749 19.5656C15.6949 21 16.626 22.949 16.7872 25.0329L25.23 26.872C25.7084 25.7291 26.3782 24.6763 27.2106 23.7591C29.0056 21.7891 31.4191 20.4909 34.0525 20.0788C36.6852 19.6676 39.3797 20.167 41.6906 21.4955L46.7375 15.8828C45.811 14.4958 45.2885 12.8797 45.228 11.2129C45.0833 8.71788 45.9505 6.26931 47.6336 4.4211C49.8853 1.93649 53.2905 0.839554 56.5693 1.54232C59.8482 2.24509 62.5044 4.64092 63.5402 7.83015C64.5759 11.0196 63.8343 14.5194 61.5945 17.0145L61.5944 17.0153Z" fill="#5E72E4"/>
<circle cx="54.6663" cy="10.6667" r="9.33333" fill="#A1CE08"/>
<circle cx="8.66667" cy="26" r="8.66667" fill="#FECD06"/>
<circle cx="43.3333" cy="55.3333" r="7.33333" fill="#E6613C"/>
</svg>
